<?xml version="1.0" encoding="utf-8"?>
<!-- Generator: Adobe Illustrator 21.0.0, SVG Export Plug-In . SVG Version: 6.00 Build 0)  -->
<svg version="1.1" xmlns="http://www.w3.org/2000/svg" xmlns:xlink="http://www.w3.org/1999/xlink" x="0px" y="0px"
	 viewBox="0 0 360 360" style="enable-background:new 0 0 360 360;" xml:space="preserve">
<style type="text/css">
	.st0{fill:#FFFFFF;}
	.st1{display:none;}
	.st2{display:inline;fill:#202457;}
	.st3{display:inline;}
	.st4{display:inline;fill:#FFFFFF;}
</style>
<g id="Layer_1">
	<g>
		<path class="st0" d="M119,205.6c-2.1,2.8-4.6,5.3-7.5,7.7c-2.9,2.4-6.1,4.5-9.6,6.3c-3.6,1.8-7.5,3.2-11.8,4.2
			c-4.3,1-9,1.5-14.1,1.5c-7.2,0-13.8-1.1-19.7-3.4c-5.9-2.2-11-5.4-15.2-9.5c-4.2-4.1-7.5-9-9.9-14.7c-2.3-5.7-3.5-12-3.5-19
			c0-9.4,1.6-18.1,4.9-26.3c3.3-8.2,7.8-15.3,13.5-21.3c5.8-6.1,12.5-10.9,20.3-14.4c7.7-3.5,16.1-5.3,25.1-5.3
			c4,0,7.8,0.4,11.5,1.2c3.7,0.8,7.2,1.9,10.4,3.4c3.2,1.4,6.1,3.2,8.6,5.2c2.5,2,4.6,4.3,6.3,6.7l-14.8,11.2
			c-0.8-1.2-1.9-2.5-3.2-3.9c-1.3-1.4-3-2.6-4.9-3.7c-1.9-1.1-4.1-2-6.5-2.8c-2.4-0.7-5.1-1.1-8-1.1c-6.4,0-12.3,1.4-17.7,4.1
			c-5.4,2.8-9.9,6.4-13.8,11c-3.8,4.6-6.8,9.8-8.9,15.6c-2.1,5.8-3.2,11.8-3.2,17.9c0,4.5,0.7,8.7,2.1,12.6c1.4,3.9,3.4,7.3,6,10.2
			s5.8,5.2,9.7,7c3.9,1.7,8.3,2.6,13.3,2.6c5.4,0,10.5-1.1,15.4-3.4c4.9-2.2,9.3-5.8,13.1-10.5L119,205.6z"/>
		<path class="st0" d="M221.3,205.6c-2.1,2.8-4.6,5.3-7.5,7.7c-2.9,2.4-6.1,4.5-9.6,6.3c-3.6,1.8-7.5,3.2-11.8,4.2
			c-4.3,1-9,1.5-14.1,1.5c-7.2,0-13.8-1.1-19.7-3.4c-5.9-2.2-11-5.4-15.2-9.5c-4.2-4.1-7.5-9-9.9-14.7c-2.3-5.7-3.5-12-3.5-19
			c0-9.4,1.6-18.1,4.9-26.3c3.3-8.2,7.8-15.3,13.5-21.3c5.8-6.1,12.5-10.9,20.3-14.4c7.7-3.5,16.1-5.3,25.1-5.3
			c4,0,7.8,0.4,11.5,1.2c3.7,0.8,7.2,1.9,10.4,3.4c3.2,1.4,6.1,3.2,8.6,5.2c2.5,2,4.6,4.3,6.3,6.7l-14.8,11.2
			c-0.8-1.2-1.9-2.5-3.2-3.9c-1.3-1.4-3-2.6-4.9-3.7c-1.9-1.1-4.1-2-6.5-2.8c-2.4-0.7-5.1-1.1-8-1.1c-6.4,0-12.3,1.4-17.7,4.1
			c-5.4,2.8-9.9,6.4-13.8,11c-3.8,4.6-6.8,9.8-8.9,15.6c-2.1,5.8-3.2,11.8-3.2,17.9c0,4.5,0.7,8.7,2.1,12.6c1.4,3.9,3.4,7.3,6,10.2
			s5.8,5.2,9.7,7c3.9,1.7,8.3,2.6,13.3,2.6c5.4,0,10.5-1.1,15.4-3.4c4.9-2.2,9.3-5.8,13.1-10.5L221.3,205.6z"/>
		<path class="st0" d="M323.4,259.5l-11.9-61.9h-46.3l-15.4,24.9h-22.3L298,114.3h16.4l29.1,145.2H323.4z M301.7,136l-27.4,45.4
			h34.6L301.7,136z"/>
	</g>
	<polygon class="st0" points="45.6,239.7 32.8,259.2 32.8,259.5 327.2,259.5 327.2,239.7 	"/>
</g>
<g id="Layer_2" class="st1">
	<rect x="380.2" y="0.3" class="st2" width="359.7" height="359.6"/>
	<g class="st3">
		<path class="st0" d="M532.4,202.4c-1.4,1.8-3,3.4-4.8,4.9c-1.8,1.5-3.9,2.9-6.2,4c-2.3,1.1-4.8,2-7.5,2.7c-2.7,0.7-5.7,1-9,1
			c-4.6,0-8.9-0.7-12.6-2.2c-3.8-1.4-7-3.5-9.8-6.1c-2.7-2.6-4.8-5.7-6.3-9.4c-1.5-3.7-2.3-7.7-2.3-12.2c0-6,1-11.6,3.1-16.9
			c2.1-5.2,5-9.8,8.7-13.7c3.7-3.9,8-7,13-9.2c5-2.3,10.3-3.4,16.1-3.4c2.5,0,5,0.3,7.4,0.8c2.4,0.5,4.6,1.2,6.7,2.2
			c2.1,0.9,3.9,2,5.5,3.3c1.6,1.3,3,2.7,4,4.3l-9.5,7.2c-0.5-0.8-1.2-1.6-2.1-2.5c-0.9-0.9-1.9-1.7-3.1-2.4
			c-1.2-0.7-2.6-1.3-4.2-1.8c-1.5-0.5-3.3-0.7-5.1-0.7c-4.1,0-7.9,0.9-11.3,2.6c-3.4,1.8-6.4,4.1-8.8,7.1c-2.5,2.9-4.4,6.3-5.7,10
			s-2.1,7.5-2.1,11.5c0,2.9,0.4,5.6,1.3,8.1c0.9,2.5,2.2,4.7,3.8,6.6s3.7,3.3,6.2,4.5c2.5,1.1,5.3,1.7,8.5,1.7
			c3.5,0,6.8-0.7,9.9-2.2c3.1-1.4,5.9-3.7,8.4-6.8L532.4,202.4z"/>
		<path class="st0" d="M597.9,202.4c-1.4,1.8-3,3.4-4.8,4.9c-1.8,1.5-3.9,2.9-6.2,4c-2.3,1.1-4.8,2-7.5,2.7c-2.7,0.7-5.8,1-9,1
			c-4.6,0-8.9-0.7-12.6-2.2c-3.8-1.4-7-3.5-9.8-6.1c-2.7-2.6-4.8-5.7-6.3-9.4c-1.5-3.7-2.3-7.7-2.3-12.2c0-6,1-11.6,3.1-16.9
			c2.1-5.2,5-9.8,8.7-13.7c3.7-3.9,8-7,13-9.2c5-2.3,10.3-3.4,16.1-3.4c2.5,0,5,0.3,7.4,0.8c2.4,0.5,4.6,1.2,6.7,2.2
			c2.1,0.9,3.9,2,5.5,3.3c1.6,1.3,3,2.7,4,4.3l-9.5,7.2c-0.5-0.8-1.2-1.6-2.1-2.5c-0.8-0.9-1.9-1.7-3.1-2.4
			c-1.2-0.7-2.6-1.3-4.2-1.8c-1.5-0.5-3.3-0.7-5.1-0.7c-4.1,0-7.9,0.9-11.3,2.6c-3.4,1.8-6.4,4.1-8.8,7.1s-4.4,6.3-5.7,10
			s-2.1,7.5-2.1,11.5c0,2.9,0.4,5.6,1.3,8.1c0.9,2.5,2.2,4.7,3.8,6.6s3.7,3.3,6.2,4.5c2.5,1.1,5.3,1.7,8.5,1.7
			c3.5,0,6.8-0.7,9.9-2.2c3.1-1.4,5.9-3.7,8.4-6.8L597.9,202.4z"/>
		<path class="st0" d="M663.4,237l-7.6-39.7H626l-9.9,16h-14.3l45.3-69.4h10.5l18.6,93.1H663.4z M649.5,157.8l-17.5,29.1h22.1
			L649.5,157.8z"/>
	</g>
	
		<rect x="550.6" y="121.8" transform="matrix(-1.836970e-16 1 -1 -1.836970e-16 787.576 -326.3224)" class="st4" width="12.7" height="217.7"/>
	
		<rect x="546.3" y="21.7" transform="matrix(-1.836970e-16 1 -1 -1.836970e-16 678.989 -426.3429)" class="st4" width="12.7" height="209.2"/>
	
		<rect x="448.1" y="122.8" transform="matrix(-1 -1.224647e-16 1.224647e-16 -1 908.8679 356.9538)" class="st4" width="12.7" height="111.4"/>
</g>
</svg>
