<?xml version="1.0" encoding="utf-8"?>
<!-- Generator: Adobe Illustrator 21.0.0, SVG Export Plug-In . SVG Version: 6.00 Build 0)  -->
<svg version="1.1" id="Layer_1" xmlns="http://www.w3.org/2000/svg" xmlns:xlink="http://www.w3.org/1999/xlink" x="0px" y="0px"
	 viewBox="0 0 24 24" style="enable-background:new 0 0 24 24;" xml:space="preserve">
<path d="M13.8,9.6c0,1-0.4,1.7-1.2,1.7c-0.8,0-1.2-0.7-1.2-1.7c0-1,0.4-1.7,1.2-1.7C13.3,7.9,13.8,8.7,13.8,9.6z M19,15
	c0.5,2.2-1.4,4.4-4.2,4c-1.2,1.2-1.9,2.6-1.9,5H11c0-2.5-0.8-4.1-1.9-5.2C6.5,20,3.5,18,4,15l0-0.1c-2.3-0.5-4-2.5-4-4.9
	s1.7-4.4,4-4.9L4,5c0-2.8,2.2-5,5-5c2,0,3.7,1.2,4.5,2.9c2.3-2.2,6.1-0.9,6.4,2.2C22.2,5.5,24,7.5,24,10C24,12.8,21.8,15,19,15z
	 M7.2,9.6c0-1.1,0.7-1.6,1.6-1.6c0.4,0,0.7,0.1,0.9,0.2l0.2-0.9C9.7,7.1,9.3,7,8.7,7C7.2,7,6,7.9,6,9.6c0,1.4,0.9,2.5,2.6,2.5
	c0.6,0,1.1-0.1,1.3-0.2L9.7,11c-0.2,0.1-0.6,0.2-0.9,0.2C7.8,11.2,7.2,10.6,7.2,9.6z M15,9.5C15,8.1,14.1,7,12.6,7
	c-1.5,0-2.4,1.1-2.4,2.6c0,1.4,0.9,2.5,2.3,2.5C14,12.1,15,11.2,15,9.5z M18,12.4h-1.3c0,0,1.2-0.9,1.2-1.7c0-0.6-0.4-1.1-1.2-1.1
	c-0.5,0-0.9,0.2-1.1,0.3l0.2,0.6c0.2-0.1,0.4-0.3,0.7-0.3c0.4,0,0.6,0.2,0.6,0.5c0,0.5-0.6,1-1.5,1.8V13H18C18,13,18,12.4,18,12.4z"
	/>
</svg>
