<?xml version="1.0" encoding="utf-8"?>
<!-- Generator: Adobe Illustrator 21.0.0, SVG Export Plug-In . SVG Version: 6.00 Build 0)  -->
<svg version="1.1" id="Layer_1" xmlns="http://www.w3.org/2000/svg" xmlns:xlink="http://www.w3.org/1999/xlink" x="0px" y="0px"
	 viewBox="0 0 24 24" style="enable-background:new 0 0 24 24;" xml:space="preserve">
<path d="M21.2,4.2l-2.9,2.9c-0.4-0.5-0.9-1-1.4-1.4l2.9-2.9L21.2,4.2z M13,4.1V0h-2v4.1C11.3,4,11.7,4,12,4S12.7,4,13,4.1z M19.9,11
	c0,0.3,0.1,0.7,0.1,1s0,0.7-0.1,1H24v-2H19.9z M18,12c0,0.3,0,0.7-0.1,1H6.1C6,12.7,6,12.3,6,12c0-3.3,2.7-6,6-6S18,8.7,18,12z
	 M7.1,5.7L4.2,2.8L2.8,4.2l2.9,2.9C6.1,6.6,6.6,6.1,7.1,5.7z M0,11v2h4.1C4,12.7,4,12.3,4,12s0-0.7,0.1-1H0z M9.1,22.7
	c-1.2-1.2-1.4-1.9-0.3-3.3c0.4-0.5,0.5-0.9,0.5-1.4c0-1-0.7-1.9-1.6-3l-1.4,1.4c1.4,1.6,1.2,1.8,0.3,3.2C6.2,20,6,20.5,6,20.9
	c0,1.2,0.9,2.3,1.7,3.1C7.7,24,9.1,22.7,9.1,22.7z M17.8,22.7c-1.2-1.2-1.4-1.9-0.3-3.3c0.4-0.5,0.5-0.9,0.5-1.4c0-1-0.7-1.9-1.6-3
	l-1.4,1.4c1.4,1.6,1.2,1.8,0.3,3.2c-0.3,0.5-0.4,0.9-0.4,1.4c0,1.2,0.9,2.3,1.7,3.1L17.8,22.7z M13.4,22.7c-1.2-1.2-1.4-1.9-0.3-3.3
	c0.4-0.5,0.5-0.9,0.5-1.4c0-1-0.7-1.9-1.6-3l-1.4,1.4c1.4,1.6,1.2,1.8,0.3,3.2c-0.3,0.5-0.4,0.9-0.4,1.4c0,1.2,0.9,2.3,1.7,3.1
	L13.4,22.7z"/>
</svg>
