<?xml version="1.0" encoding="utf-8"?>
<!-- Generator: Adobe Illustrator 21.0.0, SVG Export Plug-In . SVG Version: 6.00 Build 0)  -->
<svg version="1.1" id="Layer_1" xmlns="http://www.w3.org/2000/svg" xmlns:xlink="http://www.w3.org/1999/xlink" x="0px" y="0px"
	 viewBox="0 0 24 24" style="enable-background:new 0 0 24 24;" xml:space="preserve">
<path d="M8.5,2C9.3,2,10,2.7,10,3.5V11c0,1.6,0.5,2.3,1.4,3.1c1,0.9,1.6,2.1,1.6,3.4C13,20,11,22,8.5,22S4,20,4,17.5
	c0-1.3,0.6-2.6,1.6-3.4C6.5,13.3,7,12.6,7,11V3.5C7,2.7,7.7,2,8.5,2z M8.5,0C6.6,0,5,1.6,5,3.5V11c0,0.6-0.3,1.1-0.7,1.5
	c-1.4,1.2-2.3,3-2.3,5C2,21.1,4.9,24,8.5,24s6.5-2.9,6.5-6.5c0-2-0.9-3.8-2.3-4.9C12.3,12.2,12,11.6,12,11V3.5C12,1.6,10.4,0,8.5,0z
	 M10.6,14.7C9.6,13.8,9,13,9,11.5V5H8v6.5c0,1.5-0.6,2.3-1.6,3.2C5.6,15.4,5,16.4,5,17.5C5,19.4,6.6,21,8.5,21s3.5-1.6,3.5-3.5
	C12,16.4,11.4,15.4,10.6,14.7z M22,6h-3V3h-2v3h-3v2h3v3h2V8h3V6z"/>
</svg>
